<?xml version="1.0" encoding="UTF-8" standalone="no"?>
<!-- Created with Inkscape (http://www.inkscape.org/) -->

<svg
   version="1.1"
   id="svg1"
   width="980"
   height="980"
   viewBox="0 0 980 980"
   sodipodi:docname="user-icon-on-transparent-background-free-png.png"
   xmlns:inkscape="http://www.inkscape.org/namespaces/inkscape"
   xmlns:sodipodi="http://sodipodi.sourceforge.net/DTD/sodipodi-0.dtd"
   xmlns="http://www.w3.org/2000/svg"
   xmlns:svg="http://www.w3.org/2000/svg">
  <defs
     id="defs1" />
  <sodipodi:namedview
     id="namedview1"
     pagecolor="#ffffff"
     bordercolor="#000000"
     borderopacity="0.25"
     inkscape:showpageshadow="2"
     inkscape:pageopacity="0.0"
     inkscape:pagecheckerboard="true"
     inkscape:deskcolor="#d1d1d1" />
  <g
     inkscape:groupmode="layer"
     inkscape:label="Image"
     id="g1">
    <path
       style="fill:#ffffff;fill-opacity:1"
       d="M 464.9418,962.94211 C 365.83034,957.80094 272.95429,922.26433 194.5,859.46455 128.55053,806.67442 78.559517,736.96141 48.978629,656.53342 17.156181,570.01082 12.563459,469.54645 36.176921,376.5 69.042855,246.99512 157.90587,137.62695 279.88316,76.558499 360.19735,36.348855 446.75475,20.039303 534.5,28.582396 644.62386,39.304325 745.7858,87.893434 824.04716,167.65484 c 51.04814,52.0266 87.87981,111.974 110.49681,179.84516 36.26795,108.83618 31.63238,226.58837 -13.03054,331 -31.99059,74.78665 -84.48434,141.5093 -150.08975,190.77292 -45.83931,34.4211 -100.09271,61.12672 -155.52894,76.55738 -36.46206,10.1492 -67.02725,15.003 -107.89474,17.13384 -21.08428,1.09934 -21.44404,1.09916 -43.0582,-0.022 z m 78.81783,-38.32247 c 48.69523,-6.545 89.85227,-18.76405 132.16597,-39.23853 21.28783,-10.30061 31.3391,-15.95276 49.85306,-28.03396 51.01649,-33.29058 93.73504,-75.82917 126.63728,-126.10379 37.02472,-56.57379 59.04791,-118.70992 67.2516,-189.74336 2.19343,-18.99226 2.47787,-70.65838 0.49548,-90 -4.0931,-39.93529 -13.67427,-79.35893 -28.43464,-117 C 885.05226,317.47493 867.49131,282.75015 857.59239,267 785.68043,152.5809 669.15369,79.663442 534.5,64.82258 515.71841,62.752567 459.22563,63.055493 441.00998,65.323893 342.17205,77.632212 256.62095,118.36006 187.65751,185.93601 103.81284,268.0938 58,376.59098 58,493 c 0,133.90226 59.42742,258.52231 162.5,340.76457 55.16192,44.01404 120.84182,73.72711 191.5,86.6331 11.36708,2.07625 27.48999,4.15092 46.5,5.98357 2.2,0.21209 19.525,0.27325 38.5,0.1359 25.19366,-0.18236 37.80702,-0.69421 46.75963,-1.8975 z M 451.5,883.34486 C 394.25897,878.78086 344.41337,862.50295 293.67905,831.8058 263.20586,813.36779 226.58626,783.79739 204.6619,759.92429 191.62663,745.73038 191.16451,741.44045 200.45032,720.82784 229.00757,657.43656 272.16539,612.19468 328.109,587.00463 354.86966,574.95496 383.43189,567.90861 419,564.58166 c 63.91627,-5.97854 128.88032,-4.11898 176.34977,5.04794 41.24153,7.96423 78.5171,24.92552 109.15023,49.666 10.95232,8.84552 30.46852,29.18628 39.32945,40.99114 14.41658,19.2063 28.49003,44.4604 37.6322,67.52912 4.11056,10.37232 4.1426,13.73388 0.21099,22.1367 -2.61381,5.58635 -29.89174,33.19797 -44.78718,45.33506 -57.97653,47.24041 -130.165,76.11873 -212.88546,85.16282 -24.92867,2.72553 -58.03936,4.04741 -72.5,2.89442 z M 469.64621,523.00887 C 389.88751,512.95781 331.28042,454.0517 321.89933,374.50815 320.42447,362.00258 321.2583,335.40112 323.48254,324 c 4.70354,-24.10976 13.1936,-44.92612 26.32589,-64.5472 C 393.76699,193.77394 480.49659,167.52526 554,197.65429 c 20.45241,8.38345 38.73763,20.80381 55.54074,37.72644 25.11067,25.28929 40.54772,54.73443 47.24637,90.11927 2.67421,14.12625 2.32377,47.60591 -0.64249,61.37961 -7.67448,35.63617 -21.95015,62.08577 -47.06469,87.20032 -24.99478,24.99477 -51.76666,39.488 -86.68593,46.92828 -11.19045,2.38436 -40.79322,3.50716 -52.74779,2.00066 z"
       id="path1" />
  </g>
</svg>
